<?xml version="1.0" encoding="UTF-8"?><svg id="a" xmlns="http://www.w3.org/2000/svg" xmlns:xlink="http://www.w3.org/1999/xlink" viewBox="0 0 580 555"><defs><style>.f{fill:#009ade;}.f,.g,.h,.i,.j{fill-rule:evenodd;}.g{fill:url(#c);}.h{fill:url(#b);}.i{fill:url(#e);}.j{fill:url(#d);}</style><linearGradient id="b" x1="185.74" y1="534.51" x2="138.14" y2="25.9" gradientTransform="matrix(1, 0, 0, 1, 0, 0)" gradientUnits="userSpaceOnUse"><stop offset="0" stop-color="#00b2e3" stop-opacity="0"/><stop offset="1" stop-color="#00b2e3"/></linearGradient><linearGradient id="c" x1="405.3" y1="555.76" x2="390.13" y2="7.61" gradientTransform="matrix(1, 0, 0, 1, 0, 0)" gradientUnits="userSpaceOnUse"><stop offset="0" stop-color="#ffc600"/><stop offset="1" stop-color="#ffc600"/></linearGradient><linearGradient id="d" x1="405.3" y1="555.76" x2="390.13" y2="7.61" gradientTransform="matrix(1, 0, 0, 1, 0, 0)" gradientUnits="userSpaceOnUse"><stop offset="0" stop-color="#e50695" stop-opacity="0"/><stop offset="1" stop-color="#e50695"/></linearGradient><linearGradient id="e" x1="155.92" y1="85.72" x2="150.87" y2="270.3" gradientTransform="matrix(1, 0, 0, 1, 0, 0)" gradientUnits="userSpaceOnUse"><stop offset="0" stop-color="#051c2c" stop-opacity="0"/><stop offset="1" stop-color="#051c2c"/></linearGradient></defs><polygon class="f" points="18.25 3.67 237.71 3.67 321.81 144.29 290 197.49 290 197.47 219.86 314.73 212.07 327.76 168.54 400.55 168.54 400.55 111.11 496.56 203.33 496.56 242.29 431.41 274.12 484.61 234.21 551.33 234.19 551.33 14.73 551.33 164.37 301.16 164.37 301.16 180.28 274.58 18.25 3.67"/><polygon class="h" points="18.25 3.67 237.71 3.67 321.81 144.29 290 197.49 290 197.47 219.86 314.73 212.07 327.76 168.54 400.55 168.54 400.55 111.11 496.56 203.33 496.56 242.29 431.41 274.12 484.61 234.21 551.33 234.19 551.33 14.73 551.33 164.37 301.16 164.37 301.16 180.28 274.58 18.25 3.67"/><polygon class="g" points="517.09 551.33 345.79 551.33 313.04 496.56 296.67 469.17 267.81 420.95 267.81 420.95 227.99 354.33 259.79 301.14 299.63 367.77 360.28 469.17 376.67 496.56 376.67 496.56 430.32 496.56 468.89 496.56 336.11 274.58 465.37 58.44 373.15 58.44 337.71 117.69 305.9 64.5 342.27 3.67 561.75 3.67 399.74 274.58 565.27 551.33 517.09 551.33"/><polygon class="j" points="517.09 551.33 345.79 551.33 313.04 496.56 296.67 469.17 267.81 420.95 267.81 420.95 227.99 354.33 259.79 301.14 299.63 367.77 360.28 469.17 376.67 496.56 376.67 496.56 430.32 496.56 468.89 496.56 336.11 274.58 465.37 58.44 373.15 58.44 337.71 117.69 305.9 64.5 342.27 3.67 561.75 3.67 399.74 274.58 565.27 551.33 517.09 551.33"/><polygon class="i" points="48.04 53.47 180.28 274.56 263.31 135.77 48.04 53.47"/></svg>